PathFileType	4	(X/Y/Z)	Patient4_TMGait_0pt2_01_left_23.trc.trc
DataRate	CameraRate	NumFrames	NumMarkers	Units	OrigDataRate	OrigDataStartFrame	OrigNumFrames
44.025157232704	44.025157232704	6	33	mm	44.025157232704	89	       141
Frame#	Time	Sacral			L.Shoulder			Chest			R.Shoulder			Neck			R.ASIS			L.ASIS			R.Thigh.Superior			R.Thigh.Lateral			R.Thigh.Inferior			R.Patella			L.Thigh.Superior			L.Thigh.Lateral			L.Thigh.Inferior			L.Patella			L.Shank.Superior			L.Shank.Lateral			L.Shank.Inferior			R.Shank.Superior			R.Shank.Lateral			R.Shank.Inferior			R.Heel			R.Midfoot.Superior			R.Midfoot.Lateral			R.Toe			L.Heel			L.Midfoot.Lateral			L.Midfoot.Superior			L.Toe			L.Elbow			L.Wrist			R.Elbow			R.Wrist			
		X1	Y1	Z1	X2	Y2	Z2	X3	Y3	Z3	X4	Y4	Z4	X5	Y5	Z5	X6	Y6	Z6	X7	Y7	Z7	X8	Y8	Z8	X9	Y9	Z9	X10	Y10	Z10	X11	Y11	Z11	X12	Y12	Z12	X13	Y13	Z13	X14	Y14	Z14	X15	Y15	Z15	X16	Y16	Z16	X17	Y17	Z17	X18	Y18	Z18	X19	Y19	Z19	X20	Y20	Z20	X21	Y21	Z21	X22	Y22	Z22	X23	Y23	Z23	X24	Y24	Z24	X25	Y25	Z25	X26	Y26	Z26	X27	Y27	Z27	X28	Y28	Z28	X29	Y29	Z29	X30	Y30	Z30	X31	Y31	Z31	X32	Y32	Z32	X33	Y33	Z33	

89	54.668857142857	876.337753741110	1002.853317334257	480.988527729324	1059.859937083571	1433.045080418798	309.782170145563	1145.004542970673	1369.141587259395	481.148880637986	1044.673919921143	1441.274728157013	646.363917022240	1021.678044712662	1495.999818736274	465.546577926886	1100.777240341642	943.111638065028	610.122988898457	1098.804820999254	961.615567607189	335.172740352577	1153.371813232180	746.258175300138	574.353738576537	1084.034772556064	632.489350620863	639.962146598281	1161.311417052226	584.242038334349	556.785635523970	1168.869294802048	496.054956489997	565.589486627117	1101.421527819882	730.168270464903	356.959306929555	988.066088106066	632.368980564617	288.938656411067	1052.716673380665	538.980946602169	347.674298845878	1037.900481090729	467.221389738056	352.296849712341	991.071775590094	405.371537374782	342.678129525613	873.443866918735	321.122145986503	287.924534050276	892.947927273560	195.578712625646	350.827119057224	1140.590301680029	406.456994367295	576.685052154198	1073.949810257514	304.724441855273	646.640484909396	1111.624213535326	207.658403418151	584.400943795811	976.172070102086	43.785057639921	570.063300828539	1148.845811642473	97.438444094480	595.890194235198	1063.574956129423	37.602527824673	639.807580304837	1270.530227899820	46.516128396988	617.047609016568	731.244087831995	63.397837042771	382.449191739447	808.118238610967	48.487114534707	307.149049700808	897.130325159520	100.329947669134	335.418265033428	1017.943326503098	37.812803012919	314.164905445151	1149.615327945231	1108.703258371744	158.281372751985	1389.370004297053	1001.522705351381	163.040626630597	910.230548891612	1122.309904913368	749.935292628993	897.456042271494	860.706771555215	744.526415001499	
90	54.691571428571	878.456154184231	1003.751225478141	489.503330508449	1059.592007700319	1433.407873507081	314.262574597071	1147.381471728931	1369.823774109128	484.435720664661	1049.560215623455	1442.424227529694	650.948546889345	1023.701835962314	1496.674636627666	470.259839350077	1104.386824530127	943.884634570385	615.501760726026	1098.815261864331	962.123940105505	340.651245727959	1154.379648786132	745.869674677272	579.484207255114	1083.632231894147	632.478268166808	644.617807193260	1160.104869911786	583.730457835511	561.136494337635	1166.616754527032	495.478085843027	569.340310270974	1102.497110745138	730.813092762798	361.064147240896	989.202922387216	633.091396084328	292.992970428501	1055.572305609566	539.223499358478	349.712831998608	1041.138087216176	466.734723302916	353.249654745238	992.682183273572	405.642780413318	343.906908263563	873.041288034401	323.854713624232	289.699125624660	891.554129646367	197.176705651359	350.717384831739	1137.885570717656	406.090235747632	579.654902438541	1070.659285976650	304.123586702190	648.597687637672	1107.839429034387	207.395199564280	585.591818202666	971.760054687908	43.721057955438	570.086884407597	1144.401848155242	97.412653920601	596.106137934836	1059.150181296609	37.581733284178	639.855034169200	1266.110322960622	46.453150128289	617.225092715887	727.839123288601	67.430980645294	382.157128940032	804.339885070912	50.429883583566	306.941802916016	894.444657837951	100.871882531740	334.712050908552	1013.666129191893	37.719331641420	314.115345642642	1138.654804412317	1105.277759626534	163.380513383236	1373.609131515813	987.846316787568	166.824957062624	917.676742395506	1122.849783844288	757.706632247427	904.590821119414	861.277896571671	753.034626256621	
91	54.714285714286	880.348147765604	1004.588506298073	497.905406371469	1059.236652063580	1433.591243863022	318.669509342969	1149.632489803097	1370.325080499834	487.633588473752	1054.314635880373	1443.405284000232	655.371553962942	1025.666885779829	1497.214988906505	474.853436721076	1107.733678181378	944.469823759368	620.788985893997	1098.606937663626	962.541084852683	346.118466818114	1155.205214410194	745.442297123119	584.452336713950	1083.182522708870	632.374651182493	649.175821026981	1158.802141263928	583.189507924124	565.344631428365	1164.285275848993	494.871422892829	573.003400672942	1103.952382869500	731.544046173609	365.040218335583	991.096479319330	633.602324446794	296.881206861222	1059.490326412209	539.442825727107	351.554759318819	1045.561785757456	466.107598514226	353.880876817439	995.331679070742	405.787138941705	344.914993579374	873.571006213165	326.756933437653	291.300375839564	890.775951198777	198.992367399216	350.483093832885	1135.111276724386	405.693621439096	582.576852797085	1067.316588568897	303.509311722489	650.524572882924	1104.016452825508	207.122800402633	586.763378898763	967.290835877646	43.678682694786	570.099309989537	1139.913506260188	97.356935991468	596.306884844776	1054.671717409306	37.561779070635	639.895255832766	1261.639240270647	46.353749352080	617.387575328747	724.781353420738	72.274047382584	381.760132097791	800.759550590431	52.853011434851	306.667556318903	892.091362760294	101.537233119120	333.912199231248	1009.372019660335	37.577239369253	314.121896681549	1127.026894075177	1101.708116971691	168.975635382650	1355.870147915612	972.983765224117	171.183540872965	925.866328982081	1122.715388392204	765.254313311183	913.333459910167	861.125094882236	761.393041288933	
92	54.737000000000	881.977218272564	1005.313633096999	506.198372164686	1058.739487939261	1433.546424187407	322.988630665901	1151.716434230311	1370.595845218522	490.721802745390	1058.920280630631	1444.161542322723	659.627309528203	1027.536764829974	1497.578295227956	479.317951334433	1110.797880312002	944.836180134370	625.959380419448	1098.117541644578	962.816769898365	351.548922378436	1155.929037616773	744.981322248318	589.165312406240	1082.865133881149	632.155580759823	653.581593647864	1157.567814632557	582.624129142425	569.313007984631	1162.087900424283	494.207276813100	576.484424398495	1105.844606303160	732.394657333727	368.849939889333	993.879197400340	633.901584743413	300.560246005751	1064.621244713875	539.690538982421	353.199823806742	1051.332876186747	465.391352309314	354.205283719305	999.201638691556	405.825332353053	345.709280269793	875.231007566031	329.896682212304	292.705731880536	890.739396996093	201.120988409959	350.145131685566	1132.429463941553	405.238667107183	585.378050089863	1064.074723919962	302.884753430001	652.392430603023	1100.233298136646	206.821475331680	587.877078655552	962.771915751887	43.663445286236	570.106186665711	1135.396840590967	97.270173959582	596.487682454019	1050.146936898701	37.546163379858	639.933019110945	1257.132305334002	46.196968398532	617.533694314688	722.198819975528	78.196615822239	381.274577567367	797.453656889419	55.985185368973	306.346571509783	890.140647592715	102.438570753122	333.054114394169	1005.042985659569	37.340305799363	314.199037596465	1114.815130452916	1097.989274973429	175.170944463945	1336.005567903188	957.012792681988	176.127932077891	934.950416037828	1121.823253044019	772.539737580099	924.042819754254	860.165329392770	769.480481635225	
93	54.759714285714	883.308263654429	1005.865919200135	514.377794760701	1058.044508027802	1433.226423346536	327.206922449839	1153.592549074359	1370.579426212800	493.675161763101	1063.368895366962	1444.630367748332	663.710869041044	1029.275598348368	1497.717015903590	483.646448310552	1113.557482621913	944.950953648789	630.984961252377	1097.282299109446	962.888371366343	356.911552304013	1156.627122797837	744.482725514729	593.559078187021	1082.826894466326	631.789683924535	657.781347526809	1156.557784789261	582.031469363272	572.966219340304	1160.231229952783	493.452472013005	579.703807073438	1108.221983476663	733.406896164754	372.484854062794	997.686996746576	634.003588206914	304.002673513957	1071.097222004952	540.037524388027	354.683861877007	1058.593769408710	464.658122200322	354.280657237013	1004.458598473244	405.792696246939	346.326227629472	878.213145777772	333.350269911647	293.916480768753	891.565979558747	203.669548486174	349.747851608107	1129.995342800361	404.691820927972	587.992792857018	1061.068115113663	302.247049996460	654.166516564607	1096.562912587800	206.470761155630	588.900230429996	958.217238341981	43.677359505476	570.113268914149	1130.869098867953	97.156540704682	596.646355476092	1045.589562861557	37.536915051405	639.971828481175	1252.606764609653	45.975173202550	617.663775838026	720.235619605975	85.469077053771	380.745920860830	794.510899424842	60.077131464052	306.018840404475	888.663166519367	103.716178194922	332.191638453347	1000.664969893783	36.962548440153	314.355609966324	1102.103549630854	1094.122838602428	182.038655991463	1313.897238800328	940.104912979291	181.655488124275	945.056040708265	1120.127638734152	779.526404244400	937.014899585960	858.370288788808	777.166405195794	
94	54.782428571429	884.308900797295	1006.176681631527	522.425731248161	1057.098633710369	1432.587126988313	331.312456079915	1155.220973205280	1370.215044050889	496.466132343134	1067.655705545673	1444.745467590655	667.616196250069	1030.848556293592	1497.579533679839	487.832825827944	1115.989725738778	944.779310571302	635.833861460058	1096.044283638641	962.686498626999	362.167827371044	1157.368391322054	743.933420646132	597.593803286245	1083.180878896252	631.237442586774	661.718604474252	1155.914219645227	581.400717304445	576.244518012622	1158.905176822043	492.569577434377	582.591618334606	1111.112474040028	734.624179851243	375.970406525115	1002.638072553836	633.936872103116	307.203008723497	1079.005812867825	540.567933559840	356.082492684976	1067.440881204757	463.995295389335	354.208266228087	1011.225449207409	405.737503189051	346.832085223600	882.671787067011	337.192417203363	294.966152877106	893.356719825206	206.743016870022	349.360694105691	1127.951654668068	404.015136769425	590.359021511730	1058.409648613487	301.588173470471	655.804476601679	1093.069613795408	206.049302957356	589.803496407980	953.643187444856	43.720092920372	570.125625745020	1126.345937572533	97.023276362547	596.781125986146	1041.015637563292	37.535181548646	640.013160510850	1248.078394137710	45.690640766193	617.779037590744	719.040466759774	94.315066047130	380.256022134681	792.027238212449	65.367403262275	305.747258140109	887.724194270698	105.524549170587	331.395007120188	996.236008016163	36.408033506785	314.588828558718	1088.970402605915	1090.119704637336	189.605001232341	1289.477821229539	922.526994541638	187.755973209867	956.274915100184	1117.621805591338	786.178391922176	952.471731684445	855.774493728047	784.321236070297	
